<?xml version="1.0" standalone="no"?>
<!DOCTYPE svg PUBLIC "-//W3C//DTD SVG 20010904//EN" "http://www.w3.org/TR/2001/REC-SVG-20010904/DTD/svg10.dtd">
<!-- Created using Krita: https://krita.org -->
<svg xmlns="http://www.w3.org/2000/svg" 
    xmlns:xlink="http://www.w3.org/1999/xlink"
    xmlns:krita="http://krita.org/namespaces/svg/krita"
    xmlns:sodipodi="http://sodipodi.sourceforge.net/DTD/sodipodi-0.dtd"
    width="119.04pt"
    height="149.76pt"
    viewBox="0 0 119.04 149.76">
<defs/>
<path id="shape0" transform="translate(16.264, 66.72)" fill="#000808" fill-rule="evenodd" stroke-opacity="0" stroke="#000000" stroke-width="0" stroke-linecap="square" stroke-linejoin="bevel" d="M32.936 0L43.376 0L43.376 6.139L44.068 6.256L44.88 6.414L45.685 6.592L46.482 6.79L47.272 7.007L48.053 7.243L48.826 7.498L49.59 7.772L50.345 8.064L51.092 8.374L51.828 8.702L52.555 9.048L53.272 9.41L53.59 9.581L57.306 4.701L65.612 11.026L61.888 15.916L62.109 16.149L62.644 16.738L63.164 17.34L63.67 17.955L64.161 18.583L64.637 19.222L65.098 19.873L65.543 20.536L65.972 21.211L66.385 21.896L66.781 22.592L66.86 22.739L72.658 20.683L76.148 30.522L70.329 32.586L70.453 33.322L70.57 34.148L70.667 34.981L70.743 35.819L70.797 36.664L70.83 37.514L70.841 38.37L70.83 39.226L70.797 40.076L70.743 40.921L70.667 41.759L70.57 42.592L70.453 43.418L70.419 43.622L76.312 45.57L73.037 55.482L67.115 53.526L66.781 54.148L66.385 54.844L65.972 55.529L65.543 56.204L65.098 56.867L64.637 57.518L64.161 58.157L63.67 58.785L63.164 59.4L62.644 60.002L62.109 60.591L61.856 60.857L65.666 65.839L57.374 72.181L53.55 67.181L53.272 67.33L52.555 67.692L51.828 68.038L51.092 68.366L50.345 68.676L49.59 68.968L48.826 69.242L48.053 69.497L47.272 69.733L46.482 69.95L45.685 70.148L44.88 70.326L44.068 70.484L43.376 70.601L43.376 76.92L32.936 76.92L32.936 70.585L32.334 70.484L31.522 70.326L30.717 70.148L29.92 69.95L29.13 69.733L28.349 69.497L27.576 69.242L26.812 68.968L26.057 68.676L25.31 68.366L24.574 68.038L23.847 67.692L23.13 67.33L22.846 67.177L19.006 72.219L10.7 65.894L14.541 60.851L14.293 60.591L13.758 60.002L13.238 59.4L12.732 58.785L12.241 58.157L11.765 57.518L11.304 56.867L10.859 56.204L10.43 55.529L10.017 54.844L9.621 54.148L9.609 54.125L3.654 56.237L0.164 46.398L6.098 44.293L6.087 44.237L5.949 43.418L5.832 42.592L5.735 41.759L5.659 40.921L5.605 40.076L5.572 39.226L5.561 38.37L5.572 37.514L5.605 36.664L5.659 35.819L5.735 34.981L5.832 34.148L5.949 33.322L5.95 33.316L0 31.35L3.275 21.438L9.194 23.393L9.241 23.299L9.621 22.592L10.017 21.896L10.43 21.211L10.859 20.536L11.304 19.873L11.765 19.222L12.241 18.583L12.732 17.955L13.238 17.34L13.758 16.738L14.293 16.149L14.419 16.016L10.646 11.081L18.938 4.739L22.691 9.646L23.13 9.41L23.847 9.048L24.574 8.702L25.31 8.374L26.057 8.064L26.812 7.772L27.576 7.498L28.349 7.243L29.13 7.007L29.92 6.79L30.717 6.592L31.522 6.414L32.334 6.256L32.936 6.155L32.936 0M47.801 38.37L47.798 38.118L47.788 37.868L47.772 37.62L47.75 37.373L47.721 37.128L47.687 36.885L47.646 36.644L47.6 36.406L47.547 36.169L47.489 35.934L47.425 35.702L47.356 35.472L47.281 35.245L47.2 35.02L47.114 34.798L47.023 34.579L46.927 34.362L46.825 34.148L46.719 33.937L46.607 33.729L46.49 33.525L46.369 33.323L46.243 33.125L46.112 32.93L45.976 32.738L45.836 32.55L45.692 32.366L45.543 32.185L45.39 32.008L45.233 31.834L45.071 31.665L44.906 31.5L44.737 31.338L44.563 31.181L44.386 31.028L44.205 30.879L44.021 30.735L43.833 30.595L43.641 30.459L43.446 30.328L43.248 30.202L43.046 30.081L42.842 29.964L42.634 29.852L42.423 29.746L42.209 29.644L41.992 29.548L41.773 29.456L41.551 29.371L41.326 29.29L41.099 29.215L40.869 29.146L40.637 29.082L40.402 29.024L40.165 28.971L39.927 28.925L39.686 28.884L39.443 28.85L39.198 28.821L38.951 28.799L38.703 28.783L38.453 28.773L38.201 28.77L37.949 28.773L37.699 28.783L37.451 28.799L37.204 28.821L36.959 28.85L36.716 28.884L36.475 28.925L36.237 28.971L36 29.024L35.765 29.082L35.533 29.146L35.303 29.215L35.076 29.29L34.851 29.371L34.629 29.456L34.41 29.548L34.193 29.644L33.979 29.746L33.768 29.852L33.56 29.964L33.356 30.081L33.154 30.202L32.956 30.328L32.761 30.459L32.569 30.595L32.381 30.735L32.197 30.879L32.016 31.028L31.839 31.181L31.665 31.338L31.496 31.5L31.331 31.665L31.169 31.834L31.012 32.008L30.859 32.185L30.71 32.366L30.566 32.55L30.426 32.738L30.29 32.93L30.159 33.125L30.033 33.323L29.912 33.525L29.795 33.729L29.683 33.937L29.577 34.148L29.475 34.362L29.379 34.579L29.287 34.798L29.202 35.02L29.121 35.245L29.046 35.472L28.977 35.702L28.913 35.934L28.855 36.169L28.802 36.406L28.756 36.644L28.715 36.885L28.681 37.128L28.652 37.373L28.63 37.62L28.614 37.868L28.604 38.118L28.601 38.37L28.604 38.622L28.614 38.872L28.63 39.12L28.652 39.367L28.681 39.612L28.715 39.855L28.756 40.096L28.802 40.334L28.855 40.571L28.913 40.806L28.977 41.038L29.046 41.268L29.121 41.495L29.202 41.72L29.287 41.942L29.379 42.161L29.475 42.378L29.577 42.592L29.683 42.803L29.795 43.011L29.912 43.215L30.033 43.417L30.159 43.615L30.29 43.81L30.426 44.002L30.566 44.19L30.71 44.374L30.859 44.555L31.012 44.732L31.169 44.906L31.331 45.075L31.496 45.24L31.665 45.402L31.839 45.559L32.016 45.712L32.197 45.861L32.381 46.005L32.569 46.145L32.761 46.281L32.956 46.412L33.154 46.538L33.356 46.659L33.56 46.776L33.768 46.888L33.979 46.994L34.193 47.096L34.41 47.192L34.629 47.283L34.851 47.369L35.076 47.45L35.303 47.525L35.533 47.594L35.765 47.658L36 47.716L36.237 47.769L36.475 47.815L36.716 47.856L36.959 47.89L37.204 47.919L37.451 47.941L37.699 47.957L37.949 47.967L38.201 47.97L38.453 47.967L38.703 47.957L38.951 47.941L39.198 47.919L39.443 47.89L39.686 47.856L39.927 47.815L40.165 47.769L40.402 47.716L40.637 47.658L40.869 47.594L41.099 47.525L41.326 47.45L41.551 47.369L41.773 47.283L41.992 47.192L42.209 47.096L42.423 46.994L42.634 46.888L42.842 46.776L43.046 46.659L43.248 46.538L43.446 46.412L43.641 46.281L43.833 46.145L44.021 46.005L44.205 45.861L44.386 45.712L44.563 45.559L44.737 45.402L44.906 45.24L45.071 45.075L45.233 44.906L45.39 44.732L45.543 44.555L45.692 44.374L45.836 44.19L45.976 44.002L46.112 43.81L46.243 43.615L46.369 43.417L46.49 43.215L46.607 43.011L46.719 42.803L46.825 42.592L46.927 42.378L47.023 42.161L47.114 41.942L47.2 41.72L47.281 41.495L47.356 41.268L47.425 41.038L47.489 40.806L47.547 40.571L47.6 40.334L47.646 40.096L47.687 39.855L47.721 39.612L47.75 39.367L47.772 39.12L47.788 38.872L47.798 38.622L47.801 38.37" sodipodi:nodetypes="cccccccccccccccccccccccccccccccccccccccccccccccccccccccccccccccccccccccccccccccccccccccccccccccccccccccccccccccccccccccccccccccccccccccccccccccccccccccccccccccccccccccccccccccccccccccccccccccccccccccccccccccccccccccccccccccccccccccccccccccccccccccccccccccccccccccccccccccccccccccccccccccccccccccccccccccccccccccccccccccccccccccccccccccccccccccccccccccccccccccccccccccccccccccccccccccccccccccccccccccccccccccccccccccccc"/><path id="shape01" transform="translate(8.64000000000001, 58.68)" fill="#000808" fill-rule="evenodd" stroke-opacity="0" stroke="#000000" stroke-width="0" stroke-linecap="square" stroke-linejoin="bevel" d="M0 0L90.48 0L90.48 46.44L82.798 46.44L82.8 46.26L82.788 45.305L82.751 44.356L82.728 44.008L89.265 41.784L83.043 23.494L76.423 25.746L76.339 25.621L75.821 24.895L75.285 24.181L75.168 24.032L79.423 18.459L64.067 6.736L59.716 12.434L58.893 12.119L58.033 11.813L57.163 11.528L56.285 11.265L55.68 11.1L55.68 3.9L36.36 3.9L36.36 11.133L35.875 11.265L34.996 11.528L34.127 11.813L33.267 12.119L32.679 12.344L28.354 6.564L12.886 18.14L17.148 23.835L16.875 24.181L16.339 24.895L15.821 25.621L15.478 26.128L8.737 23.921L2.726 42.282L9.405 44.469L9.372 45.305L9.36 46.26L9.362 46.44L0 46.44L0 0" sodipodi:nodetypes="cccccccccccccccccccccccccccccccccccccccccccccc"/><rect id="shape02" transform="translate(14.28, 42.48)" fill="#000808" fill-rule="evenodd" stroke-opacity="0" stroke="#000000" stroke-width="0" stroke-linecap="square" stroke-linejoin="bevel" width="17.16" height="20.04"/><rect id="shape1" transform="translate(74.52, 35.16)" fill="#000808" fill-rule="evenodd" stroke-opacity="0" stroke="#000000" stroke-width="0" stroke-linecap="square" stroke-linejoin="bevel" width="19.08" height="25.92"/><rect id="shape2" transform="translate(41.04, 26.16)" fill="#000808" fill-rule="evenodd" stroke-opacity="0" stroke="#000000" stroke-width="0" stroke-linecap="square" stroke-linejoin="bevel" width="23.4" height="34.44"/><rect id="shape3" transform="translate(34.8, 11.52)" fill="#000808" fill-rule="evenodd" stroke-opacity="0" stroke="#000000" stroke-width="0" stroke-linecap="square" stroke-linejoin="bevel" width="8.28" height="11.4"/><rect id="shape011" transform="translate(62.694999901141, 11.52)" fill="#000808" fill-rule="evenodd" stroke-opacity="0" stroke="#000000" stroke-width="0" stroke-linecap="square" stroke-linejoin="bevel" width="8.28" height="11.4"/><path id="shape4" transform="translate(34.799999414904, 17.939992897683)" fill="#000808" fill-rule="evenodd" stroke-opacity="0" stroke="#000000" stroke-width="0" stroke-linecap="square" stroke-linejoin="bevel" d="M0 4.98001L9.765 11.925L9.71999 0Z" sodipodi:nodetypes="cccc"/><path id="shape5" transform="translate(62.789994446521, 18.029996204457)" fill="#000808" fill-rule="evenodd" stroke-opacity="0" stroke="#000000" stroke-width="0" stroke-linecap="square" stroke-linejoin="bevel" d="M8.175 4.8825L0.0900048 10.635L0 0Z" sodipodi:nodetypes="cccc"/><rect id="shape6" transform="translate(42.72, 16.08)" fill="#000808" fill-rule="evenodd" stroke-opacity="0" stroke="#000000" stroke-width="0" stroke-linecap="square" stroke-linejoin="bevel" width="20.64" height="11.4"/><rect id="shape7" transform="translate(48.6, 11.52)" fill="#000808" fill-rule="evenodd" stroke-opacity="0" stroke="#000000" stroke-width="0" stroke-linecap="square" stroke-linejoin="bevel" width="8.39999999999998" height="6"/><path id="shape03" transform="translate(7.010038722434, 43.181600972031)" sodipodi:type="arc" sodipodi:rx="21.329999271625" sodipodi:ry="19.6199993300179" sodipodi:cx="15.6399570947884" sodipodi:cy="-13.0616051804198" sodipodi:start="0.728470531778337" sodipodi:end="2.39386747708651" sodipodi:open="true" d="M0 0.279455C4.08495 4.33126 9.83806 6.61068 15.8453 6.55748C21.8525 6.50429 27.5569 4.12339 31.5563 0" fill="#000808" fill-rule="evenodd" stroke-opacity="0" stroke="#000000" stroke-width="0" stroke-linecap="square" stroke-linejoin="bevel"/><path id="shape012" transform="translate(68.485663092289, 35.19744083726)" sodipodi:type="arc" sodipodi:rx="21.329999271625" sodipodi:ry="19.6199993300179" sodipodi:cx="15.6399570947884" sodipodi:cy="-13.0616051804198" sodipodi:start="0.728470531778337" sodipodi:end="2.39386747708651" sodipodi:open="true" d="M0 0.279455C4.08495 4.33126 9.83806 6.61068 15.8453 6.55748C21.8525 6.50429 27.5569 4.12339 31.5563 0" fill="#000808" fill-rule="evenodd" stroke-opacity="0" stroke="#000000" stroke-width="0" stroke-linecap="square" stroke-linejoin="bevel"/><path id="shape11" transform="translate(7.16999953497901, 29.504995812614)" fill="#000808" fill-rule="evenodd" stroke-opacity="0" stroke="#000000" stroke-width="0" stroke-linecap="square" stroke-linejoin="bevel" d="M0 13.965L15.21 0L31.2862 13.7363Z" sodipodi:nodetypes="cccc"/><path id="shape21" transform="translate(68.519999268381, 20.339999506952)" fill="#000808" fill-rule="evenodd" stroke-opacity="0" stroke="#000000" stroke-width="0" stroke-linecap="square" stroke-linejoin="bevel" d="M0 15.21L16.02 0L31.38 14.88Z" sodipodi:nodetypes="cccc"/><rect id="shape04" transform="translate(92.16, 11.04)" fill="#000808" fill-rule="evenodd" stroke-opacity="0" stroke="#000000" stroke-width="0" stroke-linecap="square" stroke-linejoin="bevel" width="1.44" height="20.76"/><path id="shape12" transform="translate(93.119993410825, 11.4742798291375)" fill="#000808" fill-rule="evenodd" stroke="#000000" stroke-width="0.9192" stroke-linecap="square" stroke-linejoin="bevel" d="M0 1.84572C1.27163 1.95906 2.45065 2.24735 3.53706 2.71059C4.27665 2.87836 4.99719 2.97182 5.69866 2.99098C7.06784 2.67759 8.43446 1.91007 9.79852 0.688415C10.617 0.0201422 12.0733 -0.161591 14.1675 0.143217L16.2004 1.36422L18.285 1.92822C16.2425 2.5971 15.7 3.90038 13.98 4.33572C12.2135 4.1313 11.0435 4.1013 10.47 4.24572C9.89646 4.39013 8.99207 4.78203 7.75683 5.4214C7.23378 6.03253 6.30567 6.62314 4.9725 7.19322L0.21 7.27572C0.21 7.27572 0.14 5.46572 0 1.84572Z" sodipodi:nodetypes="cccccccczcccc"/>
</svg>
